<svg width="22" height="22" viewBox="0 0 22 22" fill="none" xmlns="http://www.w3.org/2000/svg">
<path d="M19.25 16.5V11C19.25 7.56275 19.25 5.84412 18.3747 4.63932C18.092 4.25022 17.7498 3.90804 17.3607 3.62534C16.1559 2.75 14.4373 2.75 11 2.75C10.3258 2.75 9.71772 2.75 9.16667 2.75661M2.75 16.5V11C2.75 7.56275 2.75 5.84412 3.62534 4.63932C3.90804 4.25022 4.25022 3.90804 4.63932 3.62534C4.89845 3.43707 5.18135 3.2893 5.5 3.1733" stroke="#606060" stroke-width="1.5" stroke-linecap="round"/>
<path d="M20.1667 14.2084V16.0417" stroke="#606060" stroke-width="1.5" stroke-linecap="round"/>
<path d="M1.83333 14.2084V16.0417" stroke="#606060" stroke-width="1.5" stroke-linecap="round"/>
<path d="M7.33333 12.6909C7.33333 11.9902 7.33333 11.6399 7.17316 11.3962C7.09255 11.2736 6.98556 11.1723 6.8607 11.1004C6.61257 10.9574 6.27745 10.9904 5.6072 11.0565C4.4778 11.1679 3.9131 11.2236 3.50842 11.5284C3.30361 11.6827 3.13168 11.8794 3.00342 12.1062C2.75 12.5542 2.75 13.1446 2.75 14.3253V15.7605C2.75 16.9295 2.75 17.514 3.00848 17.9653C3.10523 18.1343 3.22649 18.2867 3.36798 18.4171C3.74598 18.7654 4.29774 18.8742 5.40125 19.0918C6.17782 19.245 6.5661 19.3215 6.85267 19.1603C6.95841 19.1008 7.05188 19.0202 7.12774 18.9231C7.33333 18.6601 7.33333 18.2488 7.33333 17.4262V12.6909Z" stroke="#606060" stroke-width="1.5"/>
<path d="M14.6667 12.6909C14.6667 11.9902 14.6667 11.6399 14.8268 11.3962C14.9074 11.2736 15.0144 11.1723 15.1393 11.1004C15.3874 10.9574 15.7226 10.9904 16.3928 11.0565C17.5222 11.1679 18.0869 11.2236 18.4916 11.5284C18.6964 11.6827 18.8683 11.8794 18.9966 12.1062C19.25 12.5542 19.25 13.1446 19.25 14.3253V15.7605C19.25 16.9295 19.25 17.514 18.9915 17.9653C18.8948 18.1343 18.7735 18.2867 18.632 18.4171C18.254 18.7654 17.7023 18.8742 16.5988 19.0918C15.8222 19.245 15.4339 19.3215 15.1473 19.1603C15.0416 19.1008 14.9481 19.0202 14.8723 18.9231C14.6667 18.6601 14.6667 18.2488 14.6667 17.4262V12.6909Z" stroke="#606060" stroke-width="1.5"/>
</svg>
