<svg width="22" height="22" viewBox="0 0 22 22" fill="none" xmlns="http://www.w3.org/2000/svg">
<path fill-rule="evenodd" clip-rule="evenodd" d="M5.45233 1.60416C4.62874 1.60413 3.94194 1.60411 3.39673 1.67741C2.82125 1.75478 2.30168 1.92498 1.88417 2.34249C1.46666 2.76001 1.29646 3.27958 1.21909 3.85505C1.14579 4.40026 1.14581 5.08704 1.14583 5.91063V7.83933C1.14581 8.66292 1.14579 9.34972 1.21909 9.89493C1.29646 10.4704 1.46666 10.99 1.88417 11.4075C2.30168 11.825 2.82125 11.9952 3.39673 12.0726C3.94194 12.1459 4.62872 12.1459 5.45231 12.1458H5.54766C6.37126 12.1459 7.05806 12.1459 7.60327 12.0726C8.17875 11.9952 8.69832 11.825 9.11583 11.4075C9.53335 10.99 9.70354 10.4704 9.78092 9.89493C9.85422 9.34972 9.8542 8.66294 9.85417 7.83935V5.91066C9.8542 5.08707 9.85422 4.40026 9.78092 3.85505C9.70354 3.27958 9.53335 2.76001 9.11583 2.34249C8.69832 1.92498 8.17875 1.75478 7.60327 1.67741C7.05806 1.60411 6.37129 1.60413 5.54769 1.60416H5.45233ZM2.85644 3.31477C2.9759 3.19531 3.15694 3.09702 3.57994 3.04015C4.02273 2.98062 4.61632 2.97916 5.5 2.97916C6.38368 2.97916 6.97727 2.98062 7.42006 3.04015C7.84306 3.09702 8.0241 3.19531 8.14356 3.31477C8.26302 3.43422 8.36131 3.61526 8.41818 4.03827C8.47771 4.48105 8.47917 5.07465 8.47917 5.95833V7.79166C8.47917 8.67534 8.47771 9.26893 8.41818 9.71172C8.36131 10.1347 8.26302 10.3158 8.14356 10.4352C8.0241 10.5547 7.84306 10.653 7.42006 10.7098C6.97727 10.7694 6.38368 10.7708 5.5 10.7708C4.61632 10.7708 4.02273 10.7694 3.57994 10.7098C3.15694 10.653 2.9759 10.5547 2.85644 10.4352C2.73698 10.3158 2.6387 10.1347 2.58183 9.71172C2.52229 9.26893 2.52083 8.67534 2.52083 7.79166V5.95833C2.52083 5.07465 2.52229 4.48105 2.58183 4.03827C2.6387 3.61526 2.73698 3.43422 2.85644 3.31477Z" fill="white"/>
<path fill-rule="evenodd" clip-rule="evenodd" d="M15.994 9.85416C15.1704 9.85413 14.4836 9.85411 13.9384 9.92741C13.3629 10.0048 12.8433 10.175 12.4258 10.5925C12.0083 11.01 11.8381 11.5296 11.7608 12.1051C11.6875 12.6503 11.6875 13.3371 11.6875 14.1607V16.0893C11.6875 16.9129 11.6875 17.5997 11.7608 18.1449C11.8381 18.7204 12.0083 19.24 12.4258 19.6575C12.8433 20.075 13.3629 20.2452 13.9384 20.3226C14.4836 20.3959 15.1704 20.3959 15.9939 20.3958H16.0893C16.9129 20.3959 17.5997 20.3959 18.1449 20.3226C18.7204 20.2452 19.24 20.075 19.6575 19.6575C20.075 19.24 20.2452 18.7204 20.3226 18.1449C20.3959 17.5997 20.3959 16.913 20.3958 16.0894V14.1607C20.3959 13.3371 20.3959 12.6503 20.3226 12.1051C20.2452 11.5296 20.075 11.01 19.6575 10.5925C19.24 10.175 18.7204 10.0048 18.1449 9.92741C17.5997 9.85411 16.9129 9.85413 16.0893 9.85416H15.994ZM13.3981 11.5648C13.5176 11.4453 13.6986 11.347 14.1216 11.2901C14.5644 11.2306 15.158 11.2292 16.0417 11.2292C16.9253 11.2292 17.5189 11.2306 17.9617 11.2901C18.3847 11.347 18.5658 11.4453 18.6852 11.5648C18.8047 11.6842 18.903 11.8653 18.9598 12.2883C19.0194 12.7311 19.0208 13.3246 19.0208 14.2083V16.0417C19.0208 16.9253 19.0194 17.5189 18.9598 17.9617C18.903 18.3847 18.8047 18.5658 18.6852 18.6852C18.5658 18.8047 18.3847 18.903 17.9617 18.9598C17.5189 19.0194 16.9253 19.0208 16.0417 19.0208C15.158 19.0208 14.5644 19.0194 14.1216 18.9598C13.6986 18.903 13.5176 18.8047 13.3981 18.6852C13.2787 18.5658 13.1804 18.3847 13.1235 17.9617C13.064 17.5189 13.0625 16.9253 13.0625 16.0417V14.2083C13.0625 13.3246 13.064 12.7311 13.1235 12.2883C13.1804 11.8653 13.2787 11.6842 13.3981 11.5648Z" fill="white"/>
<path fill-rule="evenodd" clip-rule="evenodd" d="M15.1019 1.60416H16.9815C17.3889 1.60415 17.729 1.60415 18.0083 1.6232C18.2989 1.64303 18.5735 1.68579 18.8397 1.79605C19.4574 2.0519 19.9481 2.54264 20.2039 3.16031C20.3142 3.4265 20.357 3.70107 20.3768 3.99174C20.3958 4.27097 20.3958 4.61109 20.3958 5.01851V5.06481C20.3958 5.47223 20.3958 5.81235 20.3768 6.09158C20.357 6.38225 20.3142 6.65682 20.2039 6.92301C19.9481 7.54068 19.4574 8.03142 18.8397 8.28727C18.5735 8.39753 18.2989 8.44029 18.0083 8.46012C17.729 8.47917 17.3889 8.47917 16.9815 8.47916H15.1018C14.6944 8.47917 14.3543 8.47917 14.0751 8.46012C13.7844 8.44029 13.5098 8.39753 13.2437 8.28727C12.626 8.03142 12.1352 7.54068 11.8794 6.92301C11.7691 6.65682 11.7264 6.38225 11.7065 6.09158C11.6875 5.81235 11.6875 5.47223 11.6875 5.06481V5.01851C11.6875 4.61109 11.6875 4.27097 11.7065 3.99174C11.7264 3.70107 11.7691 3.4265 11.8794 3.16031C12.1352 2.54264 12.626 2.0519 13.2437 1.79605C13.5098 1.68579 13.7844 1.64303 14.0751 1.6232C14.3543 1.60415 14.6945 1.60415 15.1019 1.60416ZM14.1687 2.99501C13.948 3.01006 13.8406 3.03709 13.7698 3.06638C13.4891 3.18268 13.266 3.40574 13.1497 3.6865C13.1204 3.75722 13.0934 3.86467 13.0784 4.08534C13.0629 4.31218 13.0625 4.60514 13.0625 5.04166C13.0625 5.47818 13.0629 5.77114 13.0784 5.99798C13.0934 6.21865 13.1204 6.32609 13.1497 6.39682C13.266 6.67758 13.4891 6.90064 13.7698 7.01694C13.8406 7.04623 13.948 7.07325 14.1687 7.08831C14.3955 7.10379 14.6885 7.10416 15.125 7.10416H16.9583C17.3949 7.10416 17.6878 7.10379 17.9147 7.08831C18.1353 7.07325 18.2428 7.04623 18.3135 7.01694C18.5943 6.90064 18.8173 6.67758 18.9336 6.39682C18.9629 6.32609 18.9899 6.21865 19.005 5.99798C19.0205 5.77114 19.0208 5.47818 19.0208 5.04166C19.0208 4.60514 19.0205 4.31218 19.005 4.08534C18.9899 3.86467 18.9629 3.75722 18.9336 3.6865C18.8173 3.40574 18.5943 3.18268 18.3135 3.06638C18.2428 3.03709 18.1353 3.01006 17.9147 2.99501C17.6878 2.97953 17.3949 2.97916 16.9583 2.97916H15.125C14.6885 2.97916 14.3955 2.97953 14.1687 2.99501Z" fill="white"/>
<path fill-rule="evenodd" clip-rule="evenodd" d="M4.56019 13.5208C4.15276 13.5208 3.81265 13.5208 3.53342 13.5399C3.24274 13.5597 2.96818 13.6025 2.70199 13.7127C2.08431 13.9686 1.59357 14.4593 1.33772 15.077C1.22746 15.3432 1.18471 15.6177 1.16487 15.9084C1.14582 16.1876 1.14583 16.5277 1.14583 16.9351V16.9815C1.14583 17.3889 1.14582 17.729 1.16487 18.0082C1.18471 18.2989 1.22746 18.5735 1.33772 18.8397C1.59357 19.4573 2.08431 19.9481 2.70199 20.2039C2.96818 20.3142 3.24274 20.357 3.53342 20.3768C3.81264 20.3958 4.15276 20.3958 4.56018 20.3958H6.43982C6.84724 20.3958 7.18736 20.3958 7.46659 20.3768C7.75726 20.357 8.03183 20.3142 8.29802 20.2039C8.91569 19.9481 9.40643 19.4573 9.66228 18.8397C9.77254 18.5735 9.8153 18.2989 9.83513 18.0082C9.85418 17.729 9.85417 17.3889 9.85417 16.9815V16.9352C9.85417 16.5278 9.85418 16.1876 9.83513 15.9084C9.8153 15.6177 9.77254 15.3432 9.66228 15.077C9.40643 14.4593 8.91569 13.9686 8.29802 13.7127C8.03183 13.6025 7.75726 13.5597 7.46659 13.5399C7.18736 13.5208 6.84724 13.5208 6.43981 13.5208H4.56019ZM3.22818 14.983C3.2989 14.9538 3.40635 14.9267 3.62702 14.9117C3.85386 14.8962 4.14682 14.8958 4.58333 14.8958H6.41667C6.85319 14.8958 7.14615 14.8962 7.37299 14.9117C7.59365 14.9267 7.7011 14.9538 7.77183 14.983C8.05259 15.0993 8.27565 15.3224 8.39195 15.6032C8.42124 15.6739 8.44826 15.7813 8.46332 16.002C8.4788 16.2288 8.47917 16.5218 8.47917 16.9583C8.47917 17.3948 8.4788 17.6878 8.46332 17.9146C8.44826 18.1353 8.42124 18.2428 8.39195 18.3135C8.27565 18.5942 8.05259 18.8173 7.77183 18.9336C7.7011 18.9629 7.59365 18.9899 7.37299 19.005C7.14615 19.0205 6.85319 19.0208 6.41667 19.0208H4.58333C4.14682 19.0208 3.85386 19.0205 3.62701 19.005C3.40635 18.9899 3.2989 18.9629 3.22818 18.9336C2.94742 18.8173 2.72435 18.5942 2.60806 18.3135C2.57876 18.2428 2.55174 18.1353 2.53668 17.9146C2.52121 17.6878 2.52083 17.3948 2.52083 16.9583C2.52083 16.5218 2.52121 16.2288 2.53668 16.002C2.55174 15.7813 2.57876 15.6739 2.60806 15.6032C2.72435 15.3224 2.94742 15.0993 3.22818 14.983Z" fill="white"/>
</svg>
