<svg width="22" height="22" viewBox="0 0 22 22" fill="none" xmlns="http://www.w3.org/2000/svg">
<path fill-rule="evenodd" clip-rule="evenodd" d="M11 1.14584C10.4457 1.14584 9.93524 1.28361 9.37638 1.51473C8.83674 1.7379 8.20996 2.06683 7.42949 2.47641L5.53427 3.47098C4.57638 3.97364 3.80981 4.37591 3.21793 4.77118C2.60474 5.18068 2.13246 5.61186 1.78853 6.19592C1.44575 6.77804 1.29154 7.40836 1.2176 8.15901C1.14582 8.88762 1.14582 9.78373 1.14583 10.9107V11.0893C1.14582 12.2163 1.14582 13.1124 1.2176 13.841C1.29154 14.5917 1.44575 15.222 1.78853 15.8041C2.13246 16.3882 2.60474 16.8193 3.21793 17.2288C3.80978 17.6241 4.5763 18.0263 5.53412 18.529L7.42945 19.5236C8.20992 19.9332 8.83674 20.2621 9.37638 20.4853C9.93524 20.7164 10.4457 20.8542 11 20.8542C11.5543 20.8542 12.0648 20.7164 12.6236 20.4853C13.1633 20.2621 13.79 19.9332 14.5705 19.5236L16.4657 18.5291C17.4236 18.0264 18.1902 17.6241 18.7821 17.2288C19.3953 16.8193 19.8675 16.3882 20.2115 15.8041C20.5543 15.222 20.7085 14.5917 20.7824 13.841C20.8542 13.1124 20.8542 12.2163 20.8542 11.0893V10.9107C20.8542 9.78372 20.8542 8.88762 20.7824 8.15901C20.7085 7.40836 20.5543 6.77804 20.2115 6.19592C19.8675 5.61186 19.3953 5.18068 18.7821 4.77118C18.1902 4.37591 17.4236 3.97364 16.4657 3.47097L14.5705 2.47642C13.79 2.06683 13.1633 1.73791 12.6236 1.51473C12.0648 1.28361 11.5543 1.14584 11 1.14584ZM8.0399 3.70891C8.85547 3.28092 9.427 2.98174 9.90186 2.78536C10.364 2.59421 10.6888 2.52084 11 2.52084C11.3112 2.52084 11.6359 2.59421 12.0981 2.78536C12.573 2.98174 13.1445 3.28092 13.9601 3.70891L15.7934 4.671C16.7923 5.1952 17.4941 5.56447 18.0184 5.91464C18.2771 6.0874 18.4804 6.24781 18.6445 6.4091L11 10.2314L3.35549 6.40911C3.5196 6.24781 3.72287 6.0874 3.98156 5.91464C4.5059 5.56447 5.20768 5.1952 6.20657 4.671L8.0399 3.70891ZM2.69287 7.61509C2.64658 7.81115 2.61159 8.03379 2.58597 8.29381C2.5216 8.94722 2.52083 9.77572 2.52083 10.9464V11.0536C2.52083 12.2243 2.5216 13.0528 2.58597 13.7062C2.64893 14.3453 2.76853 14.7585 2.97337 15.1064C3.17705 15.4523 3.47166 15.7449 3.98156 16.0854C4.5059 16.4355 5.20768 16.8048 6.20657 17.329L8.0399 18.2911C8.85547 18.7191 9.427 19.0183 9.90186 19.2147C10.0518 19.2767 10.1873 19.3263 10.3125 19.365V11.4249L2.69287 7.61509ZM11.6875 19.365C11.8127 19.3263 11.9482 19.2767 12.0981 19.2147C12.573 19.0183 13.1445 18.7191 13.9601 18.2911L15.7934 17.329C16.7923 16.8048 17.4941 16.4355 18.0184 16.0854C18.5283 15.7449 18.823 15.4523 19.0266 15.1064C19.2315 14.7585 19.3511 14.3453 19.414 13.7062C19.4784 13.0528 19.4792 12.2243 19.4792 11.0536V10.9464C19.4792 9.77572 19.4784 8.94722 19.414 8.29381C19.3884 8.03379 19.3534 7.81115 19.3071 7.61509L11.6875 11.4249V19.365Z" fill="#606060"/>
</svg>
