<svg width="22" height="22" viewBox="0 0 22 22" fill="none" xmlns="http://www.w3.org/2000/svg">
<path d="M7.01765 7.91614C6.83325 7.58423 6.4147 7.46464 6.08279 7.64904C5.75369 7.83187 5.63333 8.24489 5.81105 8.57543L5.81564 8.58481C5.82193 8.598 5.83395 8.62433 5.84995 8.66434C5.88193 8.74428 5.92998 8.87931 5.97988 9.0739C6.07955 9.46262 6.1875 10.0926 6.1875 11C6.1875 11.9074 6.07955 12.5374 5.97988 12.9261C5.92998 13.1207 5.88193 13.2558 5.84995 13.3357C5.83395 13.3757 5.82193 13.402 5.81564 13.4152L5.81105 13.4246C5.63333 13.7551 5.75369 14.1682 6.08279 14.351C6.4147 14.5354 6.83325 14.4158 7.01765 14.0839L6.41667 13.75C7.01765 14.0839 7.01748 14.0842 7.01765 14.0839L7.01831 14.0827L7.01902 14.0814L7.02055 14.0786L7.02408 14.0721L7.03291 14.0553C7.03955 14.0424 7.04769 14.0261 7.05708 14.0064C7.07586 13.9669 7.09964 13.9138 7.12661 13.8464C7.18057 13.7115 7.2471 13.5199 7.31179 13.2677C7.44128 12.7626 7.5625 12.0176 7.5625 11C7.5625 9.98241 7.44128 9.23741 7.31179 8.73239C7.2471 8.4801 7.18057 8.28857 7.12661 8.15367C7.09964 8.08626 7.07586 8.03309 7.05708 7.99365C7.04769 7.97393 7.03955 7.95766 7.03291 7.94476L7.02408 7.92794L7.02055 7.92141L7.01902 7.91862L7.01831 7.91734C7.01815 7.91705 7.01765 7.91614 6.41667 8.25002L7.01765 7.91614Z" fill="#606060"/>
<path d="M9.29112 7.64904C9.62303 7.46464 10.0416 7.58423 10.226 7.91614L9.625 8.25002C10.226 7.91614 10.2258 7.91584 10.226 7.91614L10.2266 7.91734L10.2274 7.91862L10.2289 7.92141L10.2324 7.92794L10.2412 7.94476C10.2479 7.95766 10.256 7.97393 10.2654 7.99365C10.2842 8.03309 10.308 8.08626 10.3349 8.15367C10.3889 8.28857 10.4554 8.4801 10.5201 8.73239C10.6496 9.23741 10.7708 9.98241 10.7708 11C10.7708 12.0176 10.6496 12.7626 10.5201 13.2677C10.4554 13.5199 10.3889 13.7115 10.3349 13.8464C10.308 13.9138 10.2842 13.9669 10.2654 14.0064C10.256 14.0261 10.2479 14.0424 10.2412 14.0553L10.2324 14.0721L10.2289 14.0786L10.2274 14.0814L10.2266 14.0827C10.2265 14.083 10.226 14.0839 9.625 13.75L10.226 14.0839C10.0416 14.4158 9.62303 14.5354 9.29112 14.351C8.96202 14.1682 8.84166 13.7551 9.01938 13.4246L9.02398 13.4152C9.03026 13.402 9.04228 13.3757 9.05829 13.3357C9.09026 13.2558 9.13831 13.1207 9.18821 12.9261C9.28788 12.5374 9.39583 11.9074 9.39583 11C9.39583 10.0926 9.28788 9.46262 9.18821 9.0739C9.13831 8.87931 9.09026 8.74428 9.05829 8.66434C9.04228 8.62433 9.03026 8.598 9.02398 8.58481L9.01938 8.57543C8.84166 8.24489 8.96202 7.83187 9.29112 7.64904Z" fill="#606060"/>
<path d="M13.4343 7.91614C13.2499 7.58423 12.8314 7.46464 12.4995 7.64904C12.1704 7.83187 12.05 8.24489 12.2277 8.57543L12.2323 8.58481C12.2386 8.598 12.2506 8.62433 12.2666 8.66434C12.2986 8.74428 12.3466 8.87931 12.3965 9.0739C12.4962 9.46262 12.6042 10.0926 12.6042 11C12.6042 11.9074 12.4962 12.5374 12.3965 12.9261C12.3466 13.1207 12.2986 13.2558 12.2666 13.3357C12.2506 13.3757 12.2386 13.402 12.2323 13.4152L12.2277 13.4246C12.05 13.7551 12.1704 14.1682 12.4995 14.351C12.8314 14.5354 13.2499 14.4158 13.4343 14.0839L12.8333 13.75C13.4343 14.0839 13.4341 14.0842 13.4343 14.0839L13.435 14.0827L13.4357 14.0814L13.4372 14.0786L13.4407 14.0721L13.4496 14.0553C13.4562 14.0424 13.4644 14.0261 13.4737 14.0064C13.4925 13.9669 13.5163 13.9138 13.5433 13.8464C13.5972 13.7115 13.6638 13.5199 13.7285 13.2677C13.8579 12.7626 13.9792 12.0176 13.9792 11C13.9792 9.98241 13.8579 9.23741 13.7285 8.73239C13.6638 8.4801 13.5972 8.28857 13.5433 8.15367C13.5163 8.08626 13.4925 8.03309 13.4737 7.99365C13.4644 7.97393 13.4562 7.95766 13.4496 7.94476L13.4407 7.92794L13.4372 7.92141L13.4357 7.91862L13.435 7.91734C13.4348 7.91705 13.4343 7.91614 12.8333 8.25002L13.4343 7.91614Z" fill="#606060"/>
<path fill-rule="evenodd" clip-rule="evenodd" d="M9.11495 2.97919H10.5934C12.278 2.97917 13.6123 2.97916 14.6566 3.11956C15.7313 3.26405 16.6012 3.56849 17.2872 4.25449C17.9732 4.94049 18.2776 5.81036 18.4221 6.88508C18.5625 7.92936 18.5625 9.26367 18.5625 10.9483V11.0517C18.5625 12.7363 18.5625 14.0707 18.4221 15.115C18.2776 16.1897 17.9732 17.0595 17.2872 17.7455C16.6012 18.4315 15.7313 18.736 14.6566 18.8805C13.6123 19.0209 12.278 19.0209 10.5934 19.0209H9.11496C7.43036 19.0209 6.096 19.0209 5.05173 18.8805C3.97701 18.736 3.10714 18.4315 2.42114 17.7455C1.73514 17.0595 1.4307 16.1897 1.28621 15.115C1.14581 14.0707 1.14582 12.7364 1.14583 11.0517V10.9483C1.14582 9.2637 1.14581 7.92936 1.28621 6.88508C1.4307 5.81036 1.73514 4.94049 2.42114 4.25449C3.10714 3.56849 3.97701 3.26405 5.05173 3.11956C6.09601 2.97916 7.43034 2.97917 9.11495 2.97919ZM5.23494 4.4823C4.3127 4.60629 3.78135 4.83882 3.39341 5.22677C3.00547 5.61471 2.77294 6.14605 2.64895 7.0683C2.52229 8.01032 2.52083 9.2521 2.52083 11C2.52083 12.7479 2.52229 13.9897 2.64895 14.9317C2.77294 15.854 3.00547 16.3853 3.39341 16.7733C3.78135 17.1612 4.3127 17.3937 5.23494 17.5177C6.17697 17.6444 7.41875 17.6459 9.16667 17.6459H10.5417C12.2896 17.6459 13.5314 17.6444 14.4734 17.5177C15.3956 17.3937 15.927 17.1612 16.3149 16.7733C16.7029 16.3853 16.9354 15.854 17.0594 14.9317C17.186 13.9897 17.1875 12.7479 17.1875 11C17.1875 9.2521 17.186 8.01032 17.0594 7.0683C16.9354 6.14605 16.7029 5.61471 16.3149 5.22677C15.927 4.83882 15.3956 4.60629 14.4734 4.4823C13.5314 4.35565 12.2896 4.35419 10.5417 4.35419H9.16667C7.41875 4.35419 6.17697 4.35565 5.23494 4.4823Z" fill="#606060"/>
<path d="M20.1667 13.5209C19.787 13.5209 19.4792 13.213 19.4792 12.8334L19.4792 9.16669C19.4792 8.78699 19.787 8.47919 20.1667 8.47919C20.5464 8.47919 20.8542 8.78699 20.8542 9.16669L20.8542 12.8334C20.8542 13.213 20.5464 13.5209 20.1667 13.5209Z" fill="#606060"/>
</svg>
