<svg width="22" height="22" viewBox="0 0 22 22" fill="none" xmlns="http://www.w3.org/2000/svg">
<path fill-rule="evenodd" clip-rule="evenodd" d="M8.25 5.72916C6.85778 5.72916 5.72917 6.85777 5.72917 8.24999C5.72917 9.64221 6.85778 10.7708 8.25 10.7708C9.64222 10.7708 10.7708 9.64221 10.7708 8.24999C10.7708 6.85777 9.64222 5.72916 8.25 5.72916ZM7.10417 8.24999C7.10417 7.61716 7.61717 7.10416 8.25 7.10416C8.88283 7.10416 9.39583 7.61716 9.39583 8.24999C9.39583 8.88282 8.88283 9.39582 8.25 9.39582C7.61717 9.39582 7.10417 8.88282 7.10417 8.24999Z" fill="#606060"/>
<path fill-rule="evenodd" clip-rule="evenodd" d="M8.25 11.2292C7.15389 11.2292 6.12756 11.4498 5.34982 11.8387C4.6132 12.207 3.89583 12.843 3.89583 13.75L3.89572 13.8073C3.89431 14.2751 3.89194 15.0628 4.63854 15.6033C4.985 15.854 5.44215 16.014 6.00847 16.1159C6.58002 16.2187 7.31244 16.2708 8.25 16.2708C9.18756 16.2708 9.91998 16.2187 10.4915 16.1159C11.0578 16.014 11.515 15.854 11.8615 15.6033C12.6081 15.0628 12.6057 14.2751 12.6043 13.8073L12.6042 13.75C12.6042 12.843 11.8868 12.207 11.1502 11.8387C10.3724 11.4498 9.34611 11.2292 8.25 11.2292ZM5.27083 13.75C5.27083 13.6444 5.37428 13.3638 5.96473 13.0685C6.51406 12.7939 7.32107 12.6042 8.25 12.6042C9.17893 12.6042 9.98594 12.7939 10.5353 13.0685C11.1257 13.3638 11.2292 13.6444 11.2292 13.75C11.2292 14.3041 11.1939 14.3891 11.0552 14.4894C10.9433 14.5704 10.713 14.679 10.2481 14.7626C9.78835 14.8453 9.14578 14.8958 8.25 14.8958C7.35422 14.8958 6.71165 14.8453 6.25195 14.7626C5.78701 14.679 5.55667 14.5704 5.44479 14.4894C5.30611 14.3891 5.27083 14.3041 5.27083 13.75Z" fill="#606060"/>
<path d="M17.4167 11.6875C17.7964 11.6875 18.1042 11.3797 18.1042 11C18.1042 10.6203 17.7964 10.3125 17.4167 10.3125H13.75C13.3703 10.3125 13.0625 10.6203 13.0625 11C13.0625 11.3797 13.3703 11.6875 13.75 11.6875H17.4167Z" fill="#606060"/>
<path d="M18.1042 8.24999C18.1042 8.62969 17.7964 8.93749 17.4167 8.93749H12.8333C12.4536 8.93749 12.1458 8.62969 12.1458 8.24999C12.1458 7.8703 12.4536 7.56249 12.8333 7.56249H17.4167C17.7964 7.56249 18.1042 7.8703 18.1042 8.24999Z" fill="#606060"/>
<path d="M17.4167 14.4375C17.7964 14.4375 18.1042 14.1297 18.1042 13.75C18.1042 13.3703 17.7964 13.0625 17.4167 13.0625H14.6667C14.287 13.0625 13.9792 13.3703 13.9792 13.75C13.9792 14.1297 14.287 14.4375 14.6667 14.4375H17.4167Z" fill="#606060"/>
<path fill-rule="evenodd" clip-rule="evenodd" d="M9.11495 2.97916H12.885C14.5697 2.97914 15.904 2.97913 16.9483 3.11953C18.023 3.26402 18.8929 3.56846 19.5789 4.25446C20.2649 4.94046 20.5693 5.81033 20.7138 6.88505C20.8542 7.92933 20.8542 9.26364 20.8542 10.9482V11.0517C20.8542 12.7363 20.8542 14.0707 20.7138 15.1149C20.5693 16.1896 20.2649 17.0595 19.5789 17.7455C18.8929 18.4315 18.023 18.736 16.9483 18.8804C15.904 19.0208 14.5697 19.0208 12.8851 19.0208H9.11496C7.43036 19.0208 6.096 19.0208 5.05173 18.8804C3.97701 18.736 3.10714 18.4315 2.42114 17.7455C1.73514 17.0595 1.4307 16.1896 1.28621 15.1149C1.14581 14.0707 1.14582 12.7363 1.14583 11.0517V10.9483C1.14582 9.26367 1.14581 7.92933 1.28621 6.88505C1.4307 5.81033 1.73514 4.94046 2.42114 4.25446C3.10714 3.56846 3.97701 3.26402 5.05173 3.11953C6.09601 2.97913 7.43034 2.97914 9.11495 2.97916ZM5.23494 4.48227C4.3127 4.60626 3.78135 4.83879 3.39341 5.22674C3.00547 5.61468 2.77294 6.14602 2.64895 7.06827C2.52229 8.01029 2.52083 9.25207 2.52083 11C2.52083 12.7479 2.52229 13.9897 2.64895 14.9317C2.77294 15.854 3.00547 16.3853 3.39341 16.7732C3.78135 17.1612 4.3127 17.3937 5.23494 17.5177C6.17697 17.6444 7.41875 17.6458 9.16667 17.6458H12.8333C14.5813 17.6458 15.823 17.6444 16.7651 17.5177C17.6873 17.3937 18.2186 17.1612 18.6066 16.7732C18.9945 16.3853 19.2271 15.854 19.3511 14.9317C19.4777 13.9897 19.4792 12.7479 19.4792 11C19.4792 9.25207 19.4777 8.01029 19.3511 7.06827C19.2271 6.14602 18.9945 5.61468 18.6066 5.22674C18.2186 4.83879 17.6873 4.60626 16.7651 4.48227C15.823 4.35562 14.5813 4.35416 12.8333 4.35416H9.16667C7.41875 4.35416 6.17697 4.35562 5.23494 4.48227Z" fill="#606060"/>
</svg>
