<svg width="36" height="36" viewBox="0 0 36 36" fill="none" xmlns="http://www.w3.org/2000/svg">
<mask id="mask0_1_370" style="mask-type:alpha" maskUnits="userSpaceOnUse" x="0" y="0" width="36" height="36">
<g clip-path="url(#clip0_1_370)">
<path d="M0 5.4C0 8.38234 2.41766 10.8 5.4 10.8C8.38234 10.8 10.8 8.38234 10.8 5.4C10.8 2.41766 8.38234 0 5.4 0C2.41766 0 0 2.41766 0 5.4Z" fill="white"/>
<path d="M0 30.6C0 33.5823 2.41766 36 5.4 36C8.38234 36 10.8 33.5823 10.8 30.6C10.8 27.6177 8.38234 25.2 5.4 25.2C2.41766 25.2 0 27.6177 0 30.6Z" fill="white"/>
<path d="M8.82 18C8.82 23.07 12.93 27.18 18 27.18C23.07 27.18 27.18 23.07 27.18 18C27.18 12.93 23.07 8.82 18 8.82C12.93 8.82 8.82 12.93 8.82 18Z" fill="white"/>
<path d="M25.2 5.4C25.2 8.38234 27.6177 10.8 30.6 10.8C33.5823 10.8 36 8.38234 36 5.4C36 2.41766 33.5823 0 30.6 0C27.6177 0 25.2 2.41766 25.2 5.4Z" fill="white"/>
<path d="M25.2 30.6C25.2 33.5823 27.6177 36 30.6 36C33.5823 36 36 33.5823 36 30.6C36 27.6177 33.5823 25.2 30.6 25.2C27.6177 25.2 25.2 27.6177 25.2 30.6Z" fill="white"/>
</g>
</mask>
<g mask="url(#mask0_1_370)">
<g clip-path="url(#clip1_1_370)">
<path d="M0 0H36V36H0V0Z" fill="white"/>
<path d="M0 0H36V36H0V0Z" fill="url(#paint0_radial_1_370)"/>
<path d="M0 0H36V36H0V0Z" fill="url(#paint1_radial_1_370)"/>
<path d="M0 0H36V36H0V0Z" fill="url(#paint2_radial_1_370)"/>
</g>
</g>
<defs>
<radialGradient id="paint0_radial_1_370" cx="0" cy="0" r="1" gradientUnits="userSpaceOnUse" gradientTransform="translate(5.76 32.85) rotate(-44.0098) scale(25.7779)">
<stop stop-color="#FF00D6"/>
<stop offset="0.423475" stop-color="#FF6CE7"/>
<stop offset="1" stop-color="white" stop-opacity="0"/>
</radialGradient>
<radialGradient id="paint1_radial_1_370" cx="0" cy="0" r="1" gradientUnits="userSpaceOnUse" gradientTransform="translate(33.12 33.84) rotate(-134.384) scale(47.3506)">
<stop stop-color="#FF6C02"/>
<stop offset="1" stop-color="#FFF500" stop-opacity="0"/>
</radialGradient>
<radialGradient id="paint2_radial_1_370" cx="0" cy="0" r="1" gradientUnits="userSpaceOnUse" gradientTransform="translate(33.3 1.71) rotate(133.937) scale(37.7448)">
<stop offset="0.275832" stop-color="#07FFE1"/>
<stop offset="1" stop-color="#FFF500" stop-opacity="0"/>
</radialGradient>
<clipPath id="clip0_1_370">
<rect width="36" height="36" fill="white" transform="matrix(-1 0 0 1 36 0)"/>
</clipPath>
<clipPath id="clip1_1_370">
<rect width="36" height="36" fill="white" transform="matrix(-1 0 0 1 36 0)"/>
</clipPath>
</defs>
</svg>
