<svg width="22" height="22" viewBox="0 0 22 22" fill="none" xmlns="http://www.w3.org/2000/svg">
<path fill-rule="evenodd" clip-rule="evenodd" d="M18.817 9.50892C18.4772 8.92046 17.8545 8.72701 17.2601 8.64389C16.6609 8.56011 15.8589 8.56013 14.8889 8.56016L14.8337 8.56016C14.2561 8.56016 13.8785 8.55447 13.6033 8.51622C13.3545 8.48162 13.2754 8.43042 13.2417 8.40055C13.2169 8.37479 13.1729 8.31454 13.1429 8.09732C13.1075 7.84119 13.106 7.48997 13.106 6.92708V6.5838C13.106 5.12857 13.106 3.96281 12.994 3.13168C12.8889 2.35154 12.639 1.47535 11.7735 1.21011C10.9232 0.94954 10.21 1.5083 9.65567 2.08434C9.06512 2.698 8.36361 3.64717 7.48528 4.83557L4.6097 8.72618C4.05023 9.48309 3.58384 10.1141 3.30595 10.6358C3.02739 11.1588 2.82466 11.7798 3.13364 12.3993L3.13472 12.4016L3.13798 12.4083L3.14168 12.4156L3.14532 12.4226L3.14931 12.4301L3.15336 12.4376L3.1572 12.4445L3.16125 12.4516L3.16497 12.4579L3.16633 12.4602C3.50321 13.0436 4.12321 13.2479 4.72304 13.3394C5.34117 13.4338 6.16597 13.4399 7.16627 13.4399C7.74983 13.4399 8.12193 13.4412 8.3952 13.476C8.63661 13.5068 8.70881 13.5542 8.73975 13.5816C8.76717 13.6102 8.81524 13.6771 8.84914 13.9022C8.88793 14.1598 8.89402 14.5165 8.89401 15.073L8.894 15.4161C8.89396 16.8714 8.89393 18.0371 9.00591 18.8683C9.11103 19.6484 9.36091 20.5246 10.2264 20.7899C11.0767 21.0505 11.7899 20.4917 12.3443 19.9157C12.9348 19.302 13.6363 18.3528 14.5147 17.1644L17.3558 13.3205C17.934 12.5382 18.4096 11.8846 18.69 11.3406C18.9645 10.8083 19.1559 10.1837 18.8498 9.56982L18.8487 9.56761L18.8455 9.56095L18.8417 9.55358L18.8381 9.54653L18.8341 9.53901L18.83 9.53152L18.8262 9.52459L18.8221 9.51745L18.8183 9.51107L18.817 9.50892ZM10.6464 3.03778C10.1258 3.57879 9.477 4.45413 8.5569 5.69901L5.74994 9.4968C5.14706 10.3125 4.74369 10.8613 4.51955 11.2822C4.41046 11.487 4.3695 11.6162 4.35784 11.6945C4.35064 11.7428 4.35504 11.7646 4.36079 11.7786C4.38296 11.8112 4.47923 11.9113 4.93057 11.9802C5.42364 12.0555 6.13261 12.0649 7.16627 12.0649L7.20842 12.0649C7.73746 12.0648 8.19842 12.0648 8.5691 12.1121C8.96618 12.1627 9.36061 12.2778 9.68719 12.585L9.69254 12.59L9.69777 12.5951C10.0186 12.9101 10.149 13.3005 10.2088 13.6975C10.2659 14.0768 10.269 14.5435 10.269 15.073L10.269 15.3568C10.269 16.8848 10.2705 17.9568 10.3686 18.6847C10.4174 19.0471 10.4831 19.2597 10.546 19.3785C10.5932 19.4674 10.6203 19.4733 10.6279 19.4749L10.6293 19.4752L10.6307 19.4757C10.6403 19.479 10.6741 19.4907 10.7783 19.4382C10.9084 19.3727 11.0944 19.2315 11.3535 18.9622C11.8742 18.4212 12.523 17.5459 13.4431 16.301L16.25 12.5032C16.8495 11.6922 17.2489 11.1353 17.4679 10.7106C17.6556 10.3465 17.6351 10.2232 17.6226 10.1905C17.602 10.1604 17.5096 10.0672 17.0697 10.0056C16.5773 9.9368 15.8729 9.93516 14.8337 9.93516C14.2811 9.93516 13.8018 9.93204 13.414 9.87812C13.0136 9.82244 12.6182 9.70192 12.2945 9.39743L12.2891 9.39241L12.2839 9.38727C11.9601 9.06947 11.8352 8.67947 11.7808 8.28542C11.7309 7.92396 11.7309 7.47633 11.731 6.9714L11.731 6.64319C11.731 5.1152 11.7294 4.0432 11.6313 3.31531C11.5825 2.95286 11.5168 2.74026 11.4539 2.62153C11.4068 2.53256 11.3796 2.52673 11.372 2.52509L11.3706 2.52477L11.3692 2.52431C11.3596 2.52099 11.3259 2.50933 11.2217 2.56176C11.0915 2.62726 10.9055 2.76851 10.6464 3.03778Z" fill="#606060"/>
</svg>
