<svg width="22" height="22" viewBox="0 0 22 22" fill="none" xmlns="http://www.w3.org/2000/svg">
<path fill-rule="evenodd" clip-rule="evenodd" d="M9.77424 2.97919L12.2798 2.97919C13.271 2.97918 14.0652 2.97917 14.7161 3.04357C15.3902 3.11027 15.9627 3.24971 16.5016 3.55856C17.0394 3.86676 17.4545 4.29244 17.8636 4.84427C18.26 5.37905 18.6799 6.07362 19.2061 6.94418L19.8662 8.03616C20.3057 8.76323 20.6624 9.35323 20.9051 9.8664C21.158 10.4012 21.3125 10.9024 21.3125 11.4584C21.3125 12.0143 21.158 12.5155 20.9051 13.0503C20.6624 13.5635 20.3057 14.1535 19.8662 14.8805L19.2061 15.9725C18.6799 16.8431 18.26 17.5377 17.8636 18.0724C17.4545 18.6243 17.0394 19.05 16.5016 19.3581C15.9627 19.667 15.3902 19.8064 14.7161 19.8731C14.0652 19.9375 13.271 19.9375 12.2798 19.9375H9.77422C8.04328 19.9375 6.67184 19.9375 5.59847 19.7883C4.49189 19.6345 3.60091 19.3105 2.90111 18.5869C2.2044 17.8666 1.89519 16.9548 1.74786 15.8218C1.60415 14.7166 1.60416 13.3025 1.60417 11.5088V11.4079C1.60416 9.61417 1.60415 8.20012 1.74786 7.09491C1.89519 5.96188 2.2044 5.05014 2.90111 4.32979C3.60091 3.60624 4.49189 3.28219 5.59847 3.12837C6.67185 2.97916 8.04329 2.97917 9.77424 2.97919ZM5.78779 4.49027C4.84223 4.62171 4.29327 4.8682 3.88946 5.28571C3.48255 5.70643 3.23995 6.28347 3.11138 7.27222C2.98054 8.27845 2.97917 9.60303 2.97917 11.4584C2.97917 13.3137 2.98054 14.6383 3.11138 15.6445C3.23995 16.6332 3.48255 17.2103 3.88946 17.631C4.29327 18.0485 4.84223 18.295 5.78779 18.4264C6.75554 18.561 8.0313 18.5625 9.82762 18.5625H12.2448C13.2791 18.5625 14.0053 18.5617 14.5807 18.5048C15.1406 18.4494 15.5047 18.3447 15.818 18.1651C16.1324 17.985 16.414 17.7189 16.759 17.2535C17.1123 16.777 17.4992 16.1384 18.0469 15.2323L18.671 14.1999C19.1334 13.4349 19.453 12.9047 19.6621 12.4625C19.8644 12.0347 19.9375 11.7404 19.9375 11.4584C19.9375 11.1763 19.8644 10.882 19.6621 10.4542C19.453 10.012 19.1334 9.4818 18.671 8.71683L18.0469 7.68443C17.4992 6.77833 17.1123 6.13968 16.759 5.66317C16.414 5.19779 16.1324 4.93174 15.818 4.75156C15.5047 4.57204 15.1406 4.46729 14.5807 4.41189C14.0053 4.35496 13.2791 4.35419 12.2448 4.35419H9.82762C8.03131 4.35419 6.75554 4.35575 5.78779 4.49027ZM6.875 6.64138C7.2547 6.64138 7.5625 6.94918 7.5625 7.32888V15.5834C7.5625 15.963 7.2547 16.2709 6.875 16.2709C6.49531 16.2709 6.1875 15.963 6.1875 15.5834V7.32888C6.1875 6.94918 6.49531 6.64138 6.875 6.64138Z" fill="#606060"/>
</svg>
