<svg width="22" height="22" viewBox="0 0 22 22" fill="none" xmlns="http://www.w3.org/2000/svg">
<path fill-rule="evenodd" clip-rule="evenodd" d="M16.7292 6.41663C16.7292 8.3151 15.1901 9.85413 13.2917 9.85413C11.3932 9.85413 9.85417 8.3151 9.85417 6.41663C9.85417 4.51815 11.3932 2.97913 13.2917 2.97913C15.1901 2.97913 16.7292 4.51815 16.7292 6.41663ZM13.2917 8.47913C14.4308 8.47913 15.3542 7.55571 15.3542 6.41663C15.3542 5.27754 14.4308 4.35413 13.2917 4.35413C12.1526 4.35413 11.2292 5.27754 11.2292 6.41663C11.2292 7.55571 12.1526 8.47913 13.2917 8.47913Z" fill="#606060"/>
<path fill-rule="evenodd" clip-rule="evenodd" d="M5.27083 15.5833C5.27083 17.4818 6.80985 19.0208 8.70833 19.0208C10.6068 19.0208 12.1458 17.4818 12.1458 15.5833C12.1458 13.6848 10.6068 12.1458 8.70833 12.1458C6.80985 12.1458 5.27083 13.6848 5.27083 15.5833ZM8.70833 17.6458C7.56925 17.6458 6.64583 16.7224 6.64583 15.5833C6.64583 14.4442 7.56924 13.5208 8.70833 13.5208C9.84742 13.5208 10.7708 14.4442 10.7708 15.5833C10.7708 16.7224 9.84742 17.6458 8.70833 17.6458Z" fill="#606060"/>
<path d="M13.0625 15.5453C13.0625 15.1656 13.3703 14.8578 13.75 14.8578H20.1667C20.5464 14.8578 20.8542 15.1656 20.8542 15.5453C20.8542 15.925 20.5464 16.2328 20.1667 16.2328H13.75C13.3703 16.2328 13.0625 15.925 13.0625 15.5453Z" fill="#606060"/>
<path d="M8.25 5.6911C8.6297 5.6911 8.9375 5.99891 8.9375 6.3786C8.9375 6.7583 8.6297 7.0661 8.25 7.0661L1.83333 7.0661C1.45364 7.0661 1.14583 6.7583 1.14583 6.3786C1.14583 5.99891 1.45364 5.6911 1.83333 5.6911L8.25 5.6911Z" fill="#606060"/>
<path d="M1.14583 15.5453C1.14583 15.1656 1.45364 14.8578 1.83333 14.8578H3.66667C4.04636 14.8578 4.35417 15.1656 4.35417 15.5453C4.35417 15.925 4.04636 16.2328 3.66667 16.2328H1.83333C1.45364 16.2328 1.14583 15.925 1.14583 15.5453Z" fill="#606060"/>
<path d="M20.1667 5.6911C20.5464 5.6911 20.8542 5.99891 20.8542 6.3786C20.8542 6.7583 20.5464 7.0661 20.1667 7.0661H18.3333C17.9536 7.0661 17.6458 6.7583 17.6458 6.3786C17.6458 5.99891 17.9536 5.6911 18.3333 5.6911H20.1667Z" fill="#606060"/>
</svg>
