<svg width="22" height="22" viewBox="0 0 22 22" fill="none" xmlns="http://www.w3.org/2000/svg">
<path fill-rule="evenodd" clip-rule="evenodd" d="M4.8125 13.2917C4.8125 12.912 5.1203 12.6042 5.5 12.6042H12.8333C13.213 12.6042 13.5208 12.912 13.5208 13.2917C13.5208 13.6714 13.213 13.9792 12.8333 13.9792H5.5C5.1203 13.9792 4.8125 13.6714 4.8125 13.2917Z" fill="#606060"/>
<path fill-rule="evenodd" clip-rule="evenodd" d="M4.8125 16.5C4.8125 16.1203 5.1203 15.8125 5.5 15.8125H10.5417C10.9214 15.8125 11.2292 16.1203 11.2292 16.5C11.2292 16.8797 10.9214 17.1875 10.5417 17.1875H5.5C5.1203 17.1875 4.8125 16.8797 4.8125 16.5Z" fill="#606060"/>
<path fill-rule="evenodd" clip-rule="evenodd" d="M11.2292 2.59801C10.8071 2.5263 10.2318 2.52086 9.19398 2.52086C7.43702 2.52086 6.18818 2.52231 5.24136 2.64903C4.3138 2.77317 3.78082 3.00603 3.39341 3.39344C3.00547 3.78138 2.77294 4.31272 2.64894 5.23497C2.52229 6.177 2.52083 7.41877 2.52083 9.16669V12.8334C2.52083 14.5813 2.52229 15.8231 2.64894 16.7651C2.77294 17.6873 3.00547 18.2187 3.39341 18.6066C3.78135 18.9946 4.3127 19.2271 5.23494 19.3511C6.17697 19.4777 7.41875 19.4792 9.16667 19.4792H12.8333C14.5813 19.4792 15.823 19.4777 16.7651 19.3511C17.6873 19.2271 18.2186 18.9946 18.6066 18.6066C18.9945 18.2187 19.2271 17.6873 19.3511 16.7651C19.4777 15.8231 19.4792 14.5813 19.4792 12.8334V12.4327C19.4792 11.0247 19.4693 10.3572 19.3198 9.85419H16.4508C15.4124 9.85421 14.5638 9.85423 13.8938 9.76416C13.1935 9.67001 12.5864 9.46625 12.1017 8.98162C11.6171 8.49698 11.4133 7.88984 11.3192 7.18955C11.2291 6.51959 11.2291 5.671 11.2292 4.63257V2.59801ZM12.6042 3.30869V4.58336C12.6042 5.6831 12.6056 6.43874 12.6819 7.00633C12.7556 7.55415 12.8874 7.82276 13.074 8.00934C13.2606 8.19592 13.5292 8.32777 14.077 8.40142C14.6446 8.47773 15.4003 8.47919 16.5 8.47919H18.3512C18.0794 8.21561 17.7313 7.89978 17.2792 7.49287L13.6503 4.22688C13.2054 3.82645 12.8742 3.53086 12.6042 3.30869ZM9.3275 1.14584C10.5967 1.1455 11.4167 1.14528 12.1714 1.43489C12.9261 1.72449 13.5329 2.27088 14.4717 3.11624C14.5041 3.14542 14.5369 3.17496 14.5701 3.20485L18.199 6.47084C18.2376 6.50561 18.2758 6.53994 18.3135 6.57385C19.3985 7.54977 20.1001 8.18085 20.4775 9.02825C20.8549 9.87564 20.8546 10.8193 20.8542 12.2787C20.8542 12.3294 20.8542 12.3807 20.8542 12.4327V12.8851C20.8542 14.5697 20.8542 15.904 20.7138 16.9483C20.5693 18.023 20.2649 18.8929 19.5789 19.5789C18.8929 20.2649 18.023 20.5693 16.9483 20.7138C15.904 20.8542 14.5697 20.8542 12.885 20.8542H9.11496C7.43034 20.8542 6.09601 20.8542 5.05173 20.7138C3.97701 20.5693 3.10714 20.2649 2.42114 19.5789C1.73514 18.8929 1.4307 18.023 1.28621 16.9483C1.14581 15.904 1.14582 14.5697 1.14583 12.8851V9.11498C1.14582 7.43036 1.14581 6.09603 1.28621 5.05175C1.4307 3.97703 1.73514 3.10716 2.42114 2.42117C3.10767 1.73463 3.98046 1.43052 5.05896 1.28618C6.10759 1.14583 7.44856 1.14584 9.14239 1.14586L9.19398 1.14586C9.23903 1.14586 9.28354 1.14585 9.3275 1.14584Z" fill="#606060"/>
</svg>
