<svg width="22" height="22" viewBox="0 0 22 22" fill="none" xmlns="http://www.w3.org/2000/svg">
<path fill-rule="evenodd" clip-rule="evenodd" d="M10.9523 1.14584H11.0477C11.8713 1.14582 12.5581 1.1458 13.1033 1.2191C13.6788 1.29647 14.1983 1.46667 14.6158 1.88418C15.0333 2.30169 15.2035 2.82126 15.2809 3.39674C15.3351 3.79971 15.3492 4.28001 15.3529 4.83573C15.9474 4.85481 16.4773 4.88957 16.9483 4.95289C18.023 5.09738 18.8929 5.40182 19.5789 6.08782C20.2649 6.77382 20.5693 7.64369 20.7138 8.71841C20.8542 9.76269 20.8542 11.097 20.8542 12.7816V12.8851C20.8542 14.5697 20.8542 15.904 20.7138 16.9483C20.5693 18.023 20.2649 18.8929 19.5789 19.5789C18.8929 20.2649 18.023 20.5693 16.9483 20.7138C15.904 20.8542 14.5697 20.8542 12.885 20.8542H9.11496C7.43034 20.8542 6.09601 20.8542 5.05173 20.7138C3.97701 20.5693 3.10714 20.2649 2.42114 19.5789C1.73514 18.8929 1.4307 18.023 1.28621 16.9483C1.14581 15.904 1.14582 14.5697 1.14583 12.8851V12.7816C1.14582 11.097 1.14581 9.76269 1.28621 8.71841C1.4307 7.64369 1.73514 6.77382 2.42114 6.08782C3.10714 5.40182 3.97701 5.09738 5.05173 4.95289C5.52269 4.88957 6.05264 4.85481 6.64711 4.83573C6.65078 4.28001 6.66491 3.79971 6.71908 3.39674C6.79646 2.82126 6.96665 2.30169 7.38417 1.88418C7.80168 1.46667 8.32125 1.29647 8.89673 1.2191C9.44194 1.1458 10.1287 1.14582 10.9523 1.14584ZM8.02248 4.81414C8.3691 4.81251 8.73302 4.81251 9.11495 4.81251H12.8851C13.267 4.81251 13.6309 4.81251 13.9775 4.81414C13.9737 4.29135 13.9608 3.89699 13.9182 3.57996C13.8613 3.15695 13.763 2.97591 13.6436 2.85645C13.5241 2.737 13.3431 2.63871 12.9201 2.58184C12.4773 2.52231 11.8837 2.52085 11 2.52085C10.1163 2.52085 9.52273 2.52231 9.07994 2.58184C8.65694 2.63871 8.4759 2.737 8.35644 2.85645C8.23698 2.97591 8.1387 3.15695 8.08182 3.57996C8.0392 3.89699 8.02635 4.29135 8.02248 4.81414ZM5.23494 6.31562C4.3127 6.43962 3.78135 6.67215 3.39341 7.06009C3.00547 7.44803 2.77294 7.97937 2.64894 8.90162C2.52229 9.84365 2.52083 11.0854 2.52083 12.8333C2.52083 14.5813 2.52229 15.823 2.64894 16.7651C2.77294 17.6873 3.00547 18.2187 3.39341 18.6066C3.78135 18.9945 4.3127 19.2271 5.23494 19.3511C6.17697 19.4777 7.41875 19.4792 9.16667 19.4792H12.8333C14.5813 19.4792 15.823 19.4777 16.7651 19.3511C17.6873 19.2271 18.2186 18.9945 18.6066 18.6066C18.9945 18.2187 19.2271 17.6873 19.3511 16.7651C19.4777 15.823 19.4792 14.5813 19.4792 12.8333C19.4792 11.0854 19.4777 9.84365 19.3511 8.90162C19.2271 7.97937 18.9945 7.44803 18.6066 7.06009C18.2186 6.67215 17.6873 6.43962 16.7651 6.31562C15.823 6.18897 14.5813 6.18751 12.8333 6.18751H9.16667C7.41875 6.18751 6.17697 6.18897 5.23494 6.31562Z" fill="#606060"/>
<path d="M15.5833 8.25001C15.5833 8.75627 15.1729 9.16668 14.6667 9.16668C14.1604 9.16668 13.75 8.75627 13.75 8.25001C13.75 7.74375 14.1604 7.33335 14.6667 7.33335C15.1729 7.33335 15.5833 7.74375 15.5833 8.25001Z" fill="#606060"/>
<path d="M8.25 8.25001C8.25 8.75627 7.83959 9.16668 7.33333 9.16668C6.82707 9.16668 6.41667 8.75627 6.41667 8.25001C6.41667 7.74375 6.82707 7.33335 7.33333 7.33335C7.83959 7.33335 8.25 7.74375 8.25 8.25001Z" fill="#606060"/>
</svg>
