<svg width="22" height="22" viewBox="0 0 22 22" fill="none" xmlns="http://www.w3.org/2000/svg">
<path d="M11 1.14581C11.3797 1.14581 11.6875 1.45362 11.6875 1.83331V4.58331C11.6875 4.96301 11.3797 5.27081 11 5.27081C10.6203 5.27081 10.3125 4.96301 10.3125 4.58331V1.83331C10.3125 1.45362 10.6203 1.14581 11 1.14581Z" fill="#606060"/>
<path fill-rule="evenodd" clip-rule="evenodd" d="M5.45899 6.64582H16.541C16.9378 6.64577 17.3015 6.64573 17.5974 6.68551C17.9233 6.72932 18.2677 6.8324 18.551 7.11567C18.8343 7.39894 18.9373 7.74336 18.9811 8.06921C19.0209 8.36512 19.0209 8.72889 19.0208 9.12564L19.0208 9.32393L19.021 9.39731C19.0218 9.69584 19.0228 10.018 18.8987 10.3175C18.7747 10.617 18.5462 10.8442 18.3345 11.0546L18.2825 11.1064L15.3101 14.0788C14.7405 14.6484 14.5998 14.8064 14.5247 14.9876C14.4497 15.1687 14.4375 15.38 14.4375 16.1854V20.1667C14.4375 20.5463 14.1297 20.8542 13.75 20.8542C13.3703 20.8542 13.0625 20.5463 13.0625 20.1667L13.0624 16.0747C13.0622 15.8145 13.062 15.5764 13.0747 15.3541H8.9253C8.93805 15.5764 8.93782 15.8145 8.93758 16.0747L8.93751 20.1667C8.93751 20.5463 8.6297 20.8542 8.25001 20.8542C7.87031 20.8542 7.56251 20.5463 7.56251 20.1667V16.1854C7.56251 15.38 7.55034 15.1687 7.47528 14.9876C7.40023 14.8064 7.25948 14.6484 6.68993 14.0788L3.71751 11.1064L3.66552 11.0546C3.45382 10.8442 3.22533 10.617 3.10128 10.3175C2.97724 10.018 2.97817 9.69584 2.97903 9.39731L2.97917 9.32393L2.97917 9.12563C2.97912 8.72888 2.97908 8.36512 3.01886 8.06921C3.06267 7.74336 3.16575 7.39894 3.44902 7.11567C3.73229 6.8324 4.07671 6.72932 4.40257 6.68551C4.69848 6.64573 5.06224 6.64577 5.45899 6.64582ZM14.2594 13.1849C13.9735 13.4702 13.7252 13.7181 13.5324 13.9791H8.46764C8.27481 13.7181 8.02651 13.4702 7.74059 13.1849L5.32644 10.7708H16.6736L14.2594 13.1849ZM17.6458 9.39581L17.6458 9.16665C17.6458 8.7151 17.6444 8.44559 17.6184 8.25243C17.6065 8.16392 17.5925 8.11958 17.5843 8.09962L17.5819 8.09418L17.58 8.09018L17.5787 8.08795L17.5765 8.08669L17.5726 8.0848L17.567 8.08238C17.5471 8.07417 17.5027 8.06015 17.4142 8.04825C17.2211 8.02228 16.9516 8.02082 16.5 8.02082H5.50001C5.04845 8.02082 4.77894 8.02228 4.58578 8.04825C4.49727 8.06015 4.45294 8.07417 4.43297 8.08238C4.42835 8.08428 4.42531 8.08577 4.42354 8.08669L4.42131 8.08795L4.42004 8.09018C4.41912 8.09196 4.41764 8.095 4.41573 8.09962C4.40752 8.11958 4.3935 8.16392 4.3816 8.25243C4.35563 8.44559 4.35417 8.7151 4.35417 9.16665L4.35421 9.39581H17.6458Z" fill="#606060"/>
<path d="M5.98613 2.26384C5.71765 1.99536 5.28235 1.99536 5.01386 2.26384C4.74538 2.53233 4.74538 2.96763 5.01386 3.23612L6.8472 5.06945C7.11568 5.33793 7.55098 5.33793 7.81947 5.06945C8.08795 4.80096 8.08795 4.36566 7.81947 4.09718L5.98613 2.26384Z" fill="#606060"/>
<path d="M16.9861 2.26384C16.7176 1.99536 16.2823 1.99536 16.0139 2.26384L14.1805 4.09718C13.912 4.36566 13.912 4.80096 14.1805 5.06945C14.449 5.33793 14.8843 5.33793 15.1528 5.06945L16.9861 3.23612C17.2546 2.96763 17.2546 2.53233 16.9861 2.26384Z" fill="#606060"/>
<path d="M11.6875 17.4166C11.6875 17.037 11.3797 16.7291 11 16.7291C10.6203 16.7291 10.3125 17.037 10.3125 17.4166V19.25C10.3125 19.6297 10.6203 19.9375 11 19.9375C11.3797 19.9375 11.6875 19.6297 11.6875 19.25V17.4166Z" fill="#606060"/>
</svg>
