<svg width="22" height="22" viewBox="0 0 22 22" fill="none" xmlns="http://www.w3.org/2000/svg">
<path d="M15.5833 12.8334C16.0896 12.8334 16.5 12.4229 16.5 11.9167C16.5 11.4104 16.0896 11 15.5833 11C15.0771 11 14.6667 11.4104 14.6667 11.9167C14.6667 12.4229 15.0771 12.8334 15.5833 12.8334Z" fill="#606060"/>
<path d="M15.5833 16.5C16.0896 16.5 16.5 16.0896 16.5 15.5834C16.5 15.0771 16.0896 14.6667 15.5833 14.6667C15.0771 14.6667 14.6667 15.0771 14.6667 15.5834C14.6667 16.0896 15.0771 16.5 15.5833 16.5Z" fill="#606060"/>
<path d="M11.9167 11.9167C11.9167 12.4229 11.5063 12.8334 11 12.8334C10.4937 12.8334 10.0833 12.4229 10.0833 11.9167C10.0833 11.4104 10.4937 11 11 11C11.5063 11 11.9167 11.4104 11.9167 11.9167Z" fill="#606060"/>
<path d="M11.9167 15.5834C11.9167 16.0896 11.5063 16.5 11 16.5C10.4937 16.5 10.0833 16.0896 10.0833 15.5834C10.0833 15.0771 10.4937 14.6667 11 14.6667C11.5063 14.6667 11.9167 15.0771 11.9167 15.5834Z" fill="#606060"/>
<path d="M6.41667 12.8334C6.92293 12.8334 7.33333 12.4229 7.33333 11.9167C7.33333 11.4104 6.92293 11 6.41667 11C5.91041 11 5.5 11.4104 5.5 11.9167C5.5 12.4229 5.91041 12.8334 6.41667 12.8334Z" fill="#606060"/>
<path d="M6.41667 16.5C6.92293 16.5 7.33333 16.0896 7.33333 15.5834C7.33333 15.0771 6.92293 14.6667 6.41667 14.6667C5.91041 14.6667 5.5 15.0771 5.5 15.5834C5.5 16.0896 5.91041 16.5 6.41667 16.5Z" fill="#606060"/>
<path fill-rule="evenodd" clip-rule="evenodd" d="M6.41667 1.60419C6.79636 1.60419 7.10417 1.91199 7.10417 2.29169V2.99085C7.711 2.97917 8.37955 2.97918 9.11484 2.97919H12.885C13.6204 2.97918 14.289 2.97917 14.8958 2.99085V2.29169C14.8958 1.91199 15.2036 1.60419 15.5833 1.60419C15.963 1.60419 16.2708 1.91199 16.2708 2.29169V3.04985C16.5091 3.06802 16.7348 3.09085 16.9483 3.11956C18.023 3.26405 18.8929 3.56849 19.5789 4.25449C20.2649 4.94049 20.5693 5.81036 20.7138 6.88508C20.8542 7.92935 20.8542 9.26367 20.8542 10.9483V12.8851C20.8542 14.5697 20.8542 15.904 20.7138 16.9483C20.5693 18.023 20.2649 18.8929 19.5789 19.5789C18.8929 20.2649 18.023 20.5693 16.9483 20.7138C15.904 20.8542 14.5697 20.8542 12.8851 20.8542H9.11496C7.43036 20.8542 6.096 20.8542 5.05173 20.7138C3.97701 20.5693 3.10714 20.2649 2.42114 19.5789C1.73514 18.8929 1.4307 18.023 1.28621 16.9483C1.14581 15.904 1.14582 14.5697 1.14583 12.8851V10.9483C1.14582 9.26369 1.14581 7.92936 1.28621 6.88508C1.4307 5.81036 1.73514 4.94049 2.42114 4.25449C3.10714 3.56849 3.97701 3.26405 5.05173 3.11956C5.26524 3.09085 5.49089 3.06802 5.72917 3.04985V2.29169C5.72917 1.91199 6.03697 1.60419 6.41667 1.60419ZM5.23494 4.4823C4.3127 4.60629 3.78135 4.83882 3.39341 5.22677C3.00547 5.61471 2.77294 6.14605 2.64894 7.0683C2.62795 7.22448 2.61039 7.38891 2.59571 7.56252H19.4043C19.3896 7.38891 19.3721 7.22449 19.3511 7.0683C19.2271 6.14605 18.9945 5.61471 18.6066 5.22677C18.2186 4.83882 17.6873 4.60629 16.7651 4.4823C15.823 4.35565 14.5813 4.35419 12.8333 4.35419H9.16667C7.41875 4.35419 6.17697 4.35565 5.23494 4.4823ZM2.52083 11C2.52083 10.2172 2.52113 9.53585 2.53283 8.93752H19.4672C19.4789 9.53585 19.4792 10.2172 19.4792 11V12.8334C19.4792 14.5813 19.4777 15.823 19.3511 16.7651C19.2271 17.6873 18.9945 18.2187 18.6066 18.6066C18.2186 18.9946 17.6873 19.2271 16.7651 19.3511C15.823 19.4777 14.5813 19.4792 12.8333 19.4792H9.16667C7.41875 19.4792 6.17697 19.4777 5.23494 19.3511C4.3127 19.2271 3.78135 18.9946 3.39341 18.6066C3.00547 18.2187 2.77294 17.6873 2.64894 16.7651C2.52229 15.823 2.52083 14.5813 2.52083 12.8334V11Z" fill="#606060"/>
</svg>
